<svg xmlns="http://www.w3.org/2000/svg" viewBox="0 0 100 100">
  <style>
    path {
      fill: #000;
    }

    @media(prefers-color-scheme: dark) {
      path {
        fill: #fff;
      }
    }
  </style>
  <path d="M50 94.71c-.37 0-.74-.07-1.1-.23L10.22 77.22a2.69 2.69 0 01-1.23-3.8l38.7-66.58a2.9 2.9 0 013.18-1.25C52.03 5.91 53 6.97 53 8.2v83.84c0 .9-.62 1.75-1.38 2.25-.44.29-1.1.43-1.62.43zM15.82 73.53L48 87.89V18.16L15.82 73.53z"/>
  <path d="M91.02 73.41L52.32 6.84a2.69 2.69 0 00-5 1.35v83.84a2.69 2.69 0 003.78 2.45l38.69-17.26a2.69 2.69 0 001.23-3.8zm-6.15.12L76.4 77.3l6.74-6.73 1.72 2.96zm-32.18-49.9l2.01-2 1.81 3.11-3.82 3.83v-4.93zm4.38 2.07l1.81 3.12-6.2 6.2v-4.93l4.4-4.39zm2.37 4.08l1.81 3.12-8.56 8.57v-4.93l6.75-6.76zm2.37 4.08l1.82 3.12L52.69 47.9V43l9.12-9.13zm2.37 4.08L66 41.06l-13.31 13.3v-4.93l11.5-11.5zm2.37 4.08l1.82 3.11-15.68 15.68v-4.93l13.86-13.86zm2.37 4.07l1.82 3.12-18.05 18.05v-4.93L68.92 46.1zm2.38 4.08l1.8 3.12L52.7 73.71v-4.93l18.6-18.6zm2.37 4.08l1.8 3.12L52.7 80.16v-4.93l20.98-20.98zM52.69 81.68l23.35-23.35 1.8 3.12L52.7 86.6v-4.93zM78.4 62.41l1.8 3.12-18.18 18.19-8.9 3.97L78.4 62.4zm2.37 4.08l1.8 3.12-8.9 8.91-8.9 3.97 16-16zM54.14 20.66l-1.45 1.46v-3.96l1.45 2.5z"/>
</svg>